<svg xmlns="http://www.w3.org/2000/svg" xmlns:xlink="http://www.w3.org/1999/xlink" width="743.308" height="630" viewBox="0 -435.931 5144 4359.862">
  <defs>
    <style>
      .cls-1 {
        fill-rule: evenodd;
      }
    </style>
    <clipPath id="clip-path">
      <rect width="5144" height="3488"/>
    </clipPath>
  </defs>
  <g clip-path="url(#clip-path)">
    <path id="Color_Fill_1" data-name="Color Fill 1" class="cls-1" d="M3528,42c67.84-1.188,133.54,9.841,191,22l109,19c119.38,30.44,229.76,64.981,334,108,49.26,20.329,151.86,57.174,181,93,10.66,13.1,23.32,29.827,27,49,5.31,27.621-5.01,66.077,7,87,34.81,12.548,67.88,42.81,96,64,52.64,39.668,104.84,89.339,139,147,23.57,39.785,33.88,92.149,51,137,42.31,110.862,77.2,228.485,114,345q87.465,276.96,174,562,37.5,159.99,75,320c23.81,100.43,31.15,204.16,50,311l9,120q4.995,63.495,10,127v41c7.33,46.46,4.12,106.1-3,150q-3.495,57.99-7,116c-18.86,110.72-28.77,215.3-76,296-75.63,129.23-212.84,185.05-359,244-39.89,16.09-83.18,32.94-128,43-53.03,11.9-93.61-13.28-124-31-73.36-42.79-119.17-112.52-183-164q-58.995-54.99-118-110c-65.31-52.66-125.34-114.01-187-171-84.97-78.55-156.19-175.88-283-212-29.77-8.48-59.34-9.37-94-15q-207.48,1.995-415,4c-330.69,0-662.66,8.24-993,1l-376-3c-77.85-12.28-194.18-3.63-250,19-97.58,39.57-162.2,110.8-232,178L928,3254c-78,62.85-143.6,172.97-261,193-36,6.14-88.953-16.88-114-27-93.53-37.79-188.407-65.78-268-117-58.748-37.81-113.145-84.42-147-147-24.506-45.3-42.037-102.38-54-159q-4.5-36.99-9-74c-11.307-59.29-10.716-125.02-21-188q-1-34.5-2-69c-4.6-29.1-3.556-71.91,1-100l5-103q5.5-71.49,11-143,12.5-92.985,25-186c23.116-110.08,40.815-218.88,68-325,58.756-229.37,131.431-455.41,201-675,38.127-120.35,73.3-240.08,118-355,19.506-50.141,29.043-110.217,57-153,16.914-25.884,39.576-46.576,61-68l52-55c38.267-30.045,77.875-54.545,119-82,5.9-40.695,3.866-95.449,23-124,26.412-39.411,87.365-61.935,133-82,119.64-52.6,244-91.66,383-127,55.53-14.119,115.9-23.326,175-35l59-5c35.39-5.718,87.01-8.48,125-2,72.73,12.407,138.38,21.153,206,38,17.97,4.477,33.67,16.524,48,19l495-1h804c17.33-2.882,26.25-11.708,42-16l91-18,119-22Zm-12,44c-21.17,7.7-78.38,2.023-91,15v1h2c14.25,5.743,36.62-.852,54,2,40.3,6.616,76.49,8.52,111,20,248.26,82.575,515.03,150.981,732,267l4-1c-0.1-18.387,1.59-45.065-5-59-20.1-42.475-113.09-71.175-159-92-89.21-40.468-186.3-71.459-288-99-49.55-13.417-98.79-17.88-151-30A926.333,926.333,0,0,0,3516,86ZM1577,88l-35,3-119,17q-80.985,17.5-162,35a2783.314,2783.314,0,0,0-277,95c-42.13,16.934-129.711,51.2-153,83-11.817,16.134-8.017,49.412-15,70q0.5,1,1,2c18.028-1.635,60.862-30.707,80-39l182-74,499-163c25.27-6.292,49.78-8.745,78-13,27.6-4.161,57.08,1.561,81-4V97h-2l-36-2C1663.58,89,1620.9,87.994,1577,88Zm86,59-42,5-82,23q-127.98,43.5-256,87l-187,59C925.745,387.286,767.3,455.835,644,568c-73.469,66.835-90.813,140.07-127,243-21.706,61.74-43.715,123.8-64,188-84.282,266.72-168.866,537.01-246,815-20.874,75.23-31.726,150.83-50,229-14.085,60.25-18.917,122.6-31,188-13.832,74.87-13.144,156.49-26,235q-1,41.49-2,83c-7.692,48.63-7.867,120.62,0,169q4,51.99,8,104,5,55.5,10,111c24.743,119.24,52.585,228.1,134,290,84.98,64.61,186.785,109.86,298,149,34.2,12.04,80.678,39.12,127,28,27.292-6.55,47.959-23.86,68-38,66.8-47.12,114.48-111.6,177-162l330-306c78.46-71.22,143.73-142.89,256-182,41.4-14.42,87.59-9.81,138-18l199,6,248,3q482.445-1.005,965-2,142.485-1.005,285-2l95-3q28.5-.495,57-1c88.29-.01,154.3,16.2,214,44,68.84,32.06,112.62,85.38,168,130q15,15.495,30,31,173.49,160.98,347,322c66.86,53.88,115.41,133.31,199,170,48.77,21.41,103.81-4.59,144-19,117.1-41.97,241.85-88.01,322-168,58.5-58.38,85.83-139.44,108-235q8.505-61.5,17-123,3.495-57.495,7-115c6.93-43.71,9.41-105.28,2-151-5.98-36.89.58-74.72-5-109q-1.005-24-2-48c-7.86-48.41-7.27-93.71-16-139-7.93-41.15-9.34-82.72-17-121-14.14-70.68-23.11-141.12-40-207-20.93-81.63-34.34-161.93-56-240-70.58-254.4-142.97-498.96-228-741-25.02-71.234-46.09-141.958-72-210Q4596,713,4577,660c-17.81-30.484-41.54-54.367-63-81-29.77-36.945-72.1-63.974-112-91-106.07-71.853-230.27-120.688-361-169-93.5-34.554-192.28-61.541-289-96-76.33-27.194-152.88-54.834-237-72-59.54-12.151-138.7-4-205-4H1663Zm47,60,1506,5h201c35.91,0,76.68-3.208,107,4,52.89,12.575,93.81,38.445,121,77,17.62,24.989,37.03,68.774,29,117-14.07,84.535-45.59,113.239-87,167l-94,117c-139.57,181.7-290.57,354.78-430,536q-46.5,57.495-93,115c-36.32,47.35-73.87,105.09-133,129-24.56,9.93-61.06,11.96-94,12h-46q-63.495,1.005-127,2c-38.22,5.83-117.24,3.72-154-2-42.21-6.57-83.56-.37-115-16-35.79-17.8-60.21-49.05-84-79-40.76-51.32-84.44-100.81-125-153q-67.995-81.99-136-164c-103.43-131.883-211.08-259.6-315-391-56.17-71.022-174.39-169.627-168-294,4.5-87.678,61.23-147.095,132-169,23.36-7.231,50.66-6.845,77-11Zm-10,20-20,1-72,12c-71.82,24.85-133.09,97.053-110,200,15.12,67.419,56.8,103.509,93,149,34.87,43.821,71.82,86.125,106,130,136,174.556,281.89,341.12,418,515,41.03,52.42,83.59,103.29,126,154,17.48,20.9,35.76,46.21,60,60,33.47,19.04,79.18,10.65,127,18q28.995,0.495,58,1c59.39,9.12,131.29-1,192-1,49.24,0,112.55,4.66,150-10,46.6-18.25,75.3-59.41,104-96,38.54-49.14,80.69-95.48,118-146q62.49-75.99,125-152,152.49-191.98,305-384,44.49-55.494,89-111c32.15-41.934,70.96-75.213,83-138,21.11-110.12-50.1-176.139-129-194-30.97-7.011-72.47-3-108-3H3197Zm642,47q93.495,40,187,80,5.505,10.5,11,21c12.33,23.721,22.4,39.964-1,63-15.12-6.386-20.13-31.834-29-45-8.89-13.193-22.14-14.29-39-20-9.09-3.08-22.16-9.6-33-7v1c2.39,12.639,11.94,19.907,18,29q20.505,34.5,41,69c5.61,8.558,13.24,12.12,14,26l-12,19h-1q-60-88.491-120-177c-12.11-18.207-21.34-40.315-37-55C2341.33,276.667,2341.67,275.333,2342,274Zm448,0c2.13,7.692-28.28,47.3-34,56q-42,62.495-84,125c-10.3,16.329-22.03,45.6-38,56-1.33-1-2.67-2-4-3-2.2-6.459-8.09-12.076-6-22q28.995-48,58-96c5.17-8.271,13.28-13,15-25-0.33-.667-0.67-1.333-1-2-74.73,2.152-93.33,67.613-122,116-9.83,16.588-28.94,36.077-33,56-3.66,17.965,5.88,40.315,9,55,3.2,15.028,7.93,70.64,16,78,1.67-1.333,3.33-2.667,5-4-0.92,4.917-1.74,8.391-5,11-8.78-8.423-11.09-25.917-16-38q-20.505-53.495-41-107,26.49-47.495,53-95c10.7-20.757,29.29-70.554,46-83Zm-992,65c28.12-.2,46.62,5.556,63,17,28.91,20.2,49.4,59.279,70,88q33,43.5,66,87c11.95,15.832,28.6,31.061,37,50,19.9,44.871,2.33,96.591-31,117-30.49,18.674-81.1,13.02-106-6-28.01-21.4-53.58-67.69-75-97-32.2-44.062-142.19-142.475-88-218C1750.52,353.981,1770.24,351.783,1798,339Zm1533,1c63.78-.882,115.78,55.094,91,121-6,15.961-18.06,27.315-27,40-28.61,40.582-62.47,76.71-92,116-19.11,25.434-38.24,60.509-65,78-23.56,15.4-69.5,19.139-96,3-36.31-22.113-57.74-80.231-30-126l112-141c17.84-23.523,35.69-56.223,60-73C3297.78,348.488,3314.19,347.833,3331,340ZM1810,350c-24.36,9.129-43.75,7.081-59,24-64.37,71.42,45.37,162.849,77,209,19.36,28.245,56.13,87.644,83,105,23.82,15.39,66.5,12.95,89-2,25.48-16.934,40.41-58.547,26-95-10.78-27.259-35.42-48.551-52-71q-25.5-33.5-51-67C1894.93,413.857,1871.06,355.382,1810,350Zm1520,2c-14.47,6.766-27.99,7.925-40,16-27.49,18.488-65.25,79.549-87,108q-40.5,50.495-81,101c-23.81,39.457-6.17,92.113,25,111,23.94,14.5,63.61,10.959,85-3,24.39-15.918,42.76-47.676,60-71q39.99-51,80-102c13.07-17.225,30.38-32.347,39-54C3434.27,399.553,3388.06,351.147,3330,352ZM1813,405l7,1c8.43,3.265,19.62,16.2,16,25h-3c-3.54-6.425-6.12-11.877-12-16-2.43,1.03-3.41,1.173-5,3-0.33,1.333-.67,2.667-1,4,3.86,4.556,8.81,10.179,10,17-2.79,6.186-4.91,8.258-10,12-10.17-2.358-22.83-15.367-24-27l3-3c7.74,6.373,10.65,18.468,23,20v-2c0.33-1,.67-2,1-3-5.1-4.754-11.89-13.761-13-22Q1809.005,409.5,1813,405Zm1502,9c1.33,0.667,2.67,1.333,4,2-1.76,8.355-7.1,9.316-4,17,8.21,3.031,13.58,8.22,19,14-0.4,4.03-.33,3.912-2,6-9.76-4.376-13.54-12.493-26-14-4.69,2.681-6.92,5.51-13,7-0.33-.667-0.67-1.333-1-2C3296.95,433.044,3306.69,422,3315,414ZM1841,446c4.73-.058,6.66.13,9,2,8.29,3.613,16.1,13.091,18,23-11.7.836-11.77,6.829-23,8-0.33-.667-0.67-1.333-1-2-0.33-3.333-.67-6.667-1-10q4.995,2.5,10,5c1.67-1,3.33-2,5-3v-4c-7.62-12.774-20.39-5.5-27,4,3.17,8.2,8.77,12.191,10,22-0.33.667-.67,1.333-1,2-1.67-1.333-3.33-2.667-5-4-4.38-9.719-12.93-14.041-14-27Q1831.005,454,1841,446Zm1447,11,5,1c7.05,2.84,17.64,14.812,19,23v1c-5.99,2.533-14.9,4.366-19,9q1.995,5.5,4,11l-3,1c-9.55-4.462-23.76-12.064-29-21C3270.13,469.33,3276.39,463.331,3288,457Zm-4,10-9,10c1.63,2.557,1.23,2.424,4,4l8,1c1.67-.667,3.33-1.333,5-2,1.42-4.729,2.51-7.305,2-12Zm-690,12c8.34,3.483,9.78,13.4,14,21q7.995,13.5,16,27c3.6,13.6-27.58,75.1-33,90-5.31,14.588-9.35,37.307-20,47q10.995-64.993,22-130-7.5-12.5-15-25C2580.07,495.88,2587.38,487.561,2594,479Zm-720,2c1.67,0.667,3.33,1.333,5,2v4c-8.58,5.409-19.24,10.7-21,23,3.28,5.786,9.48,10.252,5,15-7.87-5.3-11.87-13.92-16-23C1855.73,494.472,1864.44,488.019,1874,481Zm1370,26,42,6c-0.58,4.01.05,2.991-2,5-13.75,8.093-18.93-2.326-33,1v1c0.33,1,.67,2,1,3,9.1,3.067,11.9,5.532,11,19-0.67,3-1.33,6-2,9h-1l-3-1c-5.83-12.135-15.25-24-17-39C3241.33,509.667,3242.67,508.333,3244,507ZM1894,518l8,1c7.63,3.658,14,13.649,18,21-2,7.034-15.64,11.141-21,11a16.128,16.128,0,0,0-16-14c-0.33,1.333-.67,2.667-1,4,3.93,7.362,11.44,11.168,13,20-0.67,1.667-1.33,3.333-2,5q-4.005-3.5-8-7C1874.39,533.593,1867.37,534.979,1894,518Zm7,10q-4.005,2.5-8,5v4q4.995,4,10,8c6.06-.272,6.31-0.747,9-4C1909.41,534.287,1907.43,530.964,1901,528Zm1325,5h3c-0.15,7.966-2.31,9.978-5,15q10.995,8.5,22,17v6c-0.67.333-1.33,0.667-2,1l-24-14c-18.78,2.823-22.3,22.154-32,34,0.67,1,1.33,2,2,3,14.07-.965,14.34-15.053,26-13,2.33,1,4.67,2,7,3q1.005,5,2,10c-3.88,8.122-11.9,22.2-21,25v-2c-0.33-1.333-.67-2.667-1-4,5.76-6.423,10.86-11.673,15-20v-1h-13a41.639,41.639,0,0,1-10,14c-9.91.058-11.98-2.432-16-8C3182.49,579.264,3213.49,547.373,3226,533ZM1925,555c9.76,3.471,20.88,15.94,22,28-10.2-2.145-12.19-10.551-19-16h-7a25.992,25.992,0,0,0-10,11c2.52,10.577,10.27,13.8,10,25-0.67.333-1.33,0.667-2,1-7.34-6.075-16.97-17.021-18-29C1908.54,567.271,1916.46,561.888,1925,555Zm2088,24c133.84-1.84,223.55,117.94,166,246-24.02,53.446-73.67,81.992-141,93-18.07,2.955-38.61-2.434-52-6-84.65-22.545-160.19-115.893-117-225,18.4-46.479,54.95-81,102-99ZM1954,592c9.51,3.64,16.38,17.323,22,25-0.33,1.667-.67,3.333-1,5h-1c-20.14-8.336-16.26-2.55-35,8l-4-1c-0.33-.667-0.67-1.333-1-2C1944.96,609.755,1956.11,620.531,1954,592Zm2059,7-40,9c-41.71,17.474-76.18,50.688-90,96-31.39,102.956,57.9,213.4,163,194,55.93-10.324,96.32-41.255,118-86,45.08-93.018-21.36-185.33-93-208C4054.4,598.746,4034.82,598.82,4013,599ZM1148,648c233.37-3.276,381.23,123.659,450,285,41.97,98.47,48.26,238.97,7,344-65.51,166.79-193.21,264.76-395,297-67.06,10.71-150.35-10.17-194-26-146.446-53.09-240.679-153.46-290-304-16.628-50.75-28.726-131.23-16-197,6.365-32.9,12.724-66.112,24-95,45.884-117.552,140.6-226.967,260-270l85-26Zm2809,40,28,1q19.995,24.5,40,49c20.31-5.075,32.37-36.556,46-50,11.02-.484,27.98-1.985,33,4q-30.99,35-62,70c-6.77,15.911,2.4,44.529-3,60l-24-1c-4.99-17.544,3.7-47.591-5-61-10.92-16.827-55.77-54.284-59-71ZM1154,714l-26,2c-26.36,4.855-55.59,8.593-79,18C926.98,783.037,846.832,859.6,799,983c-8.889,22.93-12.567,50.77-17,77-6.441,38.1-3.589,86.57,4,120,34.142,150.42,112.15,244.2,242,298,40.35,16.72,111.72,38.82,175,29,163.28-25.33,278.76-102.32,334-234a497.118,497.118,0,0,0,28-88c19.64-91.49-3.31-194.325-38-254C1454.03,805.474,1352.11,714.342,1154,714Zm-102,6q-13.995,4.5-28,9l-76,38c-96.085,60.616-156.323,155.151-184,285-11.347,53.24-1.956,120.5,11,163,40.67,133.39,120.576,230.36,247,277,44.45,16.4,89.05,26,154,26,16.43,0,36.32,1.3,49-4-232.812,2.93-343.013-87.48-420-243-39.9-80.61-46.543-225.44-6-312,36.78-78.525,88.831-148.338,161-191l73-37c10.39-3.755,20.67-4.872,29-11h-10Zm85,82,74,2c110.81,20.715,183.15,76.483,232,159,14.08,23.788,23.6,53.67,31,83,14.85,58.85,2.53,132.75-15,177-43.14,108.9-124.5,172.66-254,196-59.21,10.67-118.74-8.02-158-25-118.648-51.33-227.552-199.07-171-378,25.375-80.286,87.432-151.744,161-184l63-22Zm19,33c-1.67,1-3.33,2-5,3-0.56,23.7,3.39,57.645,12,73,9.74,1.474,28.96,2.8,37-1,4.53-21.2,14.67-51.509,9-73-0.67-.333-1.33-0.667-2-1Zm-41,5c-12.86,7.3-42.26,5.814-50,18-3.06,10.585,23.96,54.381,30,64,12.42,2.239,28.59-4.66,41-8,6.79-20.952-4.39-52.163-9-73Zm116,3c-7.13,12.634-16.44,61.549-8,76,10.51,1.8,26.93,15.892,38,11,6.22-2.749,33.5-59.936,30-68C1271.8,855.958,1255.32,844.577,1231,843Zm-190,25q-24.99,16-50,32-0.5,3-1,6c6.887,8.594,40.05,48.439,49,50,5.38,0.937,35.88-19.366,39-23C1075.08,921.343,1050.98,868.971,1041,868Zm1261,5,486,1c33.43,1.459,147.51-8.461,157,11q1.005,148.985,2,298c2.64,25.38,5.4,78.99-11,87-10.45,4.78-32.02,2-46,2H2357c-35.75,0-141.2,7.2-164-4-7.83-26.37-6-69.55-6-105V983c0-21.2-5.82-85.105,2-99C2203.34,858.523,2272.42,884.183,2302,873Zm-993,3c-10.57,18.125-27.55,43.842-30,67l30,24c13.68-.9,52.96-39.573,54-53C1354.21,900.444,1328.63,877.279,1309,876Zm924,7c-10.39,3.847-25.49.59-34,5q-1.005,124.488-2,249,1.005,60,2,120c1.33,1,2.67,2,4,3q88.995,1.005,178,2h380q63.495-.495,127-1c13.46-1.89,40.26,4.71,47-4q1.5-54.99,3-110-0.495-83.985-1-168c0-29.734,3.21-67.207-3-92-19.35-6.329-49.56-4-74-4H2233ZM970,922c-8.732,8.146-39.6,42.014-34,55l62,29c9.1-5.22,24.86-24.822,27-36q-23.5-24-47-48h-8Zm2701,4c88.76-.87,146.48,55.845,167,124,33.5,111.25-68.42,233.62-182,215-114.64-18.79-200.64-146.71-123-264,21.05-31.8,55.51-56.76,96-69Zm-2517,2c-16.01,6.58-35.18,6.087-50,12-50.9,20.306-92.27,61.58-109,116-32.007,104.09,28.8,187.82,96,220,21.25,10.18,55.07,25.89,90,20,80.01-13.48,133.3-49.8,161-115,9.53-22.43,15.86-54.46,11-85C1336.22,990.487,1276.19,927.337,1154,928Zm3203,2c116.88-1.583,215.57,111.88,165,234-26.4,63.75-74.74,95.92-157,105-107.6,11.87-199.98-118.41-160-227,17.25-46.842,55.34-84.43,102-102Zm-2980,3q-24.495,24.5-49,49c1.06,11.382,16.17,34.52,25,39q31.995-16,64-32c-0.89-13.746-26.21-47.646-35-56h-5Zm2285,13q-17.505,3.5-35,7c-44.01,16.884-78.93,47.34-95,92-35.55,98.78,52.28,216.56,150,201,63.26-10.07,108.22-38.22,130-89C3860.17,1044.72,3774.44,945.072,3662,946Zm691,4q-22.005,5-44,10c-40.75,16.718-76.27,51.4-89,96-28.81,100.94,55.41,209.77,158,193,63.42-10.37,105.69-41.88,127-94C4550.81,1042.96,4459.47,949.13,4353,950ZM923,992c-12.794,12.82-18.587,41.71-22,63,0.667,0.67,1.333,1.33,2,2,20.907,4.24,49.431,12.03,72,8q7-19.995,14-40C987.527,1020.17,932.258,992.79,923,992Zm497,16c-17.69,13.08-45.12,17.12-60,33q4.995,21,10,42c15.06,0.4,69.23-5.96,74-13,3.05-10.63-11.83-53.47-17-62h-7Zm2330,21v6l-55,58c4.69,23.31,44.31,46.28,56,68-0.33.67-.67,1.33-1,2-29.85-.06-37.5-2.94-50-19-5.45-7-16.89-28.17-26-27-19.11,6.49-23.69,35.02-40,44q-17.505,1.995-35,4l-1-1v-4l55-61v-7c-11.18-8.42-52.9-50.99-56-64,48.12-.64,54.69,22.84,75,49h4C3697.7,1054.69,3704.39,1025.43,3750,1029Zm590,3c34.36-.72,86.74-4.8,94,22,5.19,19.14-10.63,35.38-8,44l11,8c8.81,10.79,8.87,36.25,1,49-6.66,10.8-108.05,19.73-129,10-0.2-26.66-5.9-114.54,2-132Q4325.505,1032.505,4340,1032Zm1,24c-5.35,6.64-2.53,19.94-5,30,0.33,1,.67,2,1,3,18.9,2.74,54.2,3.48,68-4,2.82-10,2.12-15.69-1-25C4388.06,1054.77,4362.71,1055.88,4341,1056ZM900,1074c-1.427,1.34-1.76,1.25-3,3-6.739,14.81-4.183,50.02-1,66,9.923,2.77,70.295-8.58,74-14,3.926-8.77,2.548-39.85-3-44Q933.5,1079.495,900,1074Zm538,17q-32.49,6-65,12l-3,45c0.67,0.33,1.33.67,2,1q35.49,4.995,71,10c0.33-1,.67-2,1-3,7.11-13.94,5.94-51.17,2-65h-8Zm2901,19c-2.3,4.14-5.34,28.44,1,33,13.2,5.44,61.08-1.07,73-4,4.15-8.23,3.42-19.75-1-27C4392.13,1107.19,4362.3,1109.89,4339,1110ZM965,1151c-19.534,8.17-47.326,2.74-65,12,2.46,21.56,8.9,47.83,20,62,13.436-2.25,61.233-26.24,66-36q-6.5-19.005-13-38h-8Zm401,16c-6.6,7.09-15.51,29.48-14,40,20.6,9.76,40.48,25.71,64,31,9.39-17.14,20.33-36.76,23-60l-2-2C1414.36,1172.8,1391.41,1167.62,1366,1167Zm-376,45c-11.389,7.15-58.373,22.94-60,35,8.345,15.72,22.015,39.44,36,50,18.779-5.27,44.29-33.98,53-50-1.7-11.64-14.79-28.9-23-35h-6Zm347,12c-6.79,9.8-13.1,19.32-22,27,0.33,1,.67,2,1,3,3.52,11.56,37.51,44.93,48,51h3c14.7-13.09,29.64-28.88,38-48C1396.48,1246.55,1354.34,1224.61,1337,1224Zm-305,39q-24,23.505-48,47c0.333,1.67.667,3.33,1,5,6.32,12.57,36.13,32.7,51,36,9.35-9.4,33.58-53.08,31-69C1055.68,1275.69,1048.07,1263.66,1032,1263Zm2976,5c128.16-1.75,221.96,115.12,167,241-22.9,52.46-69.26,85.96-134,97-124.98,21.31-223.6-113.92-179-228,17.96-45.93,53.62-82.52,100-100Q3985,1273.005,4008,1268Zm-2713,2-30,21c1.75,12.84,25.38,58.48,34,65,13.63-5.29,43.06-21.57,50-34C1351.59,1313.88,1306.51,1271.07,1295,1270Zm2714,18q-19.005,4.005-38,8c-43.32,15.19-76.05,48.32-92,91-36.68,98.17,52.33,216.92,152,201,63.08-10.08,105.75-40.58,129-90,8.16-17.35,13.83-46.56,10-71C4156.48,1340.8,4108.73,1287.17,4009,1288Zm-2922,8c-8.47,9.42-34.77,56.51-28,69,13.57,5.15,41.87,20.84,57,12,2.76-17.47,14.79-55.76,7-71C1110.09,1302.68,1102.08,1296.45,1087,1296Zm152,3q-16.005,5.505-32,11c-0.42,26.23,4.11,48.38,9,71,0.67,0.33,1.33.67,2,1,23.52,0,40.11-9.99,59-15,0.33-.67.67-1.33,1-2-0.61-18.14-22.5-51.18-31-66h-8Zm-77,12-18,3c-2.19,23.07-12.32,47.54-8,72,16.86,1.35,48.7,4.7,62-2,0.21-20.47-4.27-56.55-13-72Q1173.495,1311.505,1162,1311Zm2847,49c9.07-.02,21.91-1.56,28,2,8.04,4.69,10.38,19.6,15,28,11.66,21.2,49.45,80.95,52,103l-1,1c-9.94.22-20.88,0.01-28-2q-7.005-13.995-14-28c-19.29-3.81-69.39-4.49-82,4a71.13,71.13,0,0,1-14,26c-8.75.56-21.77,3.28-27-2q23.505-45.99,47-92c5.19-10.17,10.5-31.24,20-37C4006.33,1362,4007.67,1361,4009,1360Zm9,33c-8.31,13.2-21.21,32.54-23,50,13.14,1.42,40.49,3.36,52-2v-1q-12-23.505-24-47h-5Zm-695,51c239.73-3.46,393.89,130.94,465,297,43.88,102.47,50.38,251.72,7,361-53.91,135.81-156.74,236.49-298,285-38.02,13.06-79.83,17.15-124,24-69.02,10.71-167.35-16.3-211-35-140.49-60.2-229.61-155.31-281-305-17.36-50.58-33.83-136.65-19-206,7.54-35.27,12.53-70.97,25-102,54.76-136.25,148.32-236.99,287-289,28.79-10.8,60.41-18.25,93-24Zm1331,6c53.1,0.79,62.4,86.93,76,130,43.27,137.06,82.05,278.66,124,419,15.04,50.32,40.66,149.29-21,167-8.95,2.57-21.17-1.25-27-3-39.56-11.86-43.91-65.2-55-105-2.89-10.37-2.95-22.7-9-30-13.67-16.51-46.58-17.23-58-36q-33-119.49-66-239c-5.17-16.45-25.41-68.61-21-87q14.505-27,29-54c3.52-14.53-4.17-26.78-7-36-10.48-34.07-21.13-77.01,1-105C4628.66,1460.04,4640.89,1456.86,4654,1450Zm4,11c-11.52,5.02-21.91,6.92-29,16-20.67,26.46-7.67,70.1,1,101,2.37,8.45,9.14,20.46,7,32-4.19,22.61-24.29,36.45-29,57-4.43,19.36,15.21,65.33,20,82q22.5,82.485,45,165c6.79,23.12,8.12,51.83,20,71,12.04,19.41,47.82,20.17,60,39,21.21,32.8,8.43,148.36,73,133,62.55-14.88,37.46-88.12,24-136-39.21-139.44-75.88-282.76-123-417C4714.14,1567.38,4699.26,1462.65,4658,1461Zm-1510,34c-1.67,1.33-3.33,2.67-5,4h3a11.113,11.113,0,0,0,4-4h-2Zm-1297,5c228.95-3.42,383.69,148.3,449,311,39.06,97.29,32.09,247.05-6,339-56.67,136.81-165.68,234.68-316,278-33.77,9.73-69.46,9.19-108,15-17.94,2.7-39.21-.51-54-3l-53-6c-40.08-8.92-75.78-23.36-109-38-124.45-54.84-214.88-162.66-252-305-13.08-50.15-23.97-124.92-12-187,7.66-39.74,17.08-76.65,30-112,44.15-120.77,165.65-225.9,290-268,25.55-8.65,52.32-13.25,81-18Zm1281,2q-4.5,3.495-9,7h3c5.39-1.79,8.12-2.75,11-7h-5Zm-12,7-12,6v2c6.69-.84,11.36-3.09,14-8h-2Zm-1269,1-42,3c-37.13,6.33-74.33,10.39-106,23-139.69,55.61-239.26,150.83-288,297-15.07,45.19-28.05,112.57-19,171,6.67,43.07,9.59,77.05,21,113,41.99,132.28,137.73,227.18,260,280,45.29,19.56,141.03,48.8,214,37,196.31-31.75,320.24-121.42,391-277,44.21-97.2,49.74-252.19,5-353C2215.35,1642.55,2081.27,1511.15,1851,1510Zm1462,2q-16.995,1.995-34,4c-27.44,5.61-53.3,11.25-78,20-117.57,41.63-208.85,136.72-250,255-88.12,253.3,78.84,458.12,253,525,45.38,17.43,116.46,33.76,183,23,172.66-27.92,283.21-116.01,343-256,10.78-25.24,17.79-55.19,24-84,14.58-67.63,1.84-147.48-15-201-42.95-136.48-147.71-236.06-289-274C3409.65,1513.17,3364.5,1512.09,3313,1512Zm-209,5c-5.24,6.51-21.87,12.96-31,19l-57,45c-38.72,28.45-71.24,85.64-97,128-17.66,29.03-30.77,68.91-40,104-57.74,219.43,64.8,418.39,187,502,51.73,35.39,112.6,64.99,184,80,118.89,25,245.45-6.71,321-51,22.41-13.14,75.34-37.58,84-61h-1c-15.09,5.59-23.79,18.47-36,27l-50,31c-35.34,20.26-78.32,34.07-121,46q-34.5,4.005-69,8-28.995-.495-58-1l-54-3c-35.67-7.7-70.26-18.03-100-31-156.05-68.04-252.85-181.2-286-373-6.99-40.44-7.59-90.63,0-132,5.57-30.37,10.11-58.26,20-84,28.02-72.92,69.49-144.12,125-190q28.5-23.505,57-47c9.54-5.78,18.15-7.8,25-16C3106,1517.67,3105,1517.33,3104,1517Zm213,43c193.4-3.06,307.42,90.89,365,224,34.24,79.16,38.15,194.86,4,278-52.93,128.86-152.41,202.23-309,229-64.46,11.02-129.76-9.38-172-27-141.64-59.07-277.33-232.12-211-447,33.88-109.76,113.81-190.14,216-232q40.5-11.505,81-23Q3304.005,1561,3317,1560Zm-1514,8c113.02-.65,193.15-7.93,213,87,6.55,31.3-7.8,141.29,12,153,9.39,5.06,27.18,2.46,41,3,31.71,1.25,119.2-6.07,148,5,16.72,6.43,33.37,21.38,40,38,7.85,19.66,5,52.1,5,78,0,67.82,11.72,158.82-28,188-42.56,31.27-168.07-6.81-210,19-14.97,47.96,5.06,132.09-15,176-8.37,18.32-27.92,40.46-46,49-34.51,16.31-146.65,21.04-192,8-19.81-5.7-39.91-19.25-51-34-21.26-28.29-23-63.53-23-115,0-21.09,3.5-68.57-5-81-14.14-20.67-118.99-4.62-153-11-50.31-9.43-78.48-46.29-87-98v-69c-2.82-23.98-1.25-63.64,6-83,13.96-37.31,43.66-61.53,88-69,45.45-7.66,110.17,11.6,144-8,17.34-41.95-3.49-118.02,11-164,9.12-28.93,34.74-56.1,63-66Zm3,21-27,3c-26.22,7.65-50.57,30.44-58,57-11.8,42.17,10.68,133.12-11,164-26.63,37.93-110.95,9.81-165,21-68.66,14.21-71,66.33-71,150,0,32.76-1.88,66.98,11,87,13.46,20.93,35.32,35.04,65,40,47.5,7.93,130.03-16.26,155,14,26.52,32.15,5.1,107.94,14,158,11.39,64.03,57.28,72,134,72q34.5-.495,69-1c48.53-8.74,65.98-35.73,74-86,6.92-43.39-12.51-109.16,9-138,38.39-51.47,200.17,15.88,230-44,8.73-17.51,5-51.1,5-76,0-64.32,16.54-162.44-36-176q-19.995-.495-40-1c-49.05.01-127.78,9.88-155-14-27.53-24.15-6-117.72-15-163C1978.86,1579.87,1897.39,1588.56,1806,1589Zm1517,10c-1.33,1-2.67,2-4,3-0.6,25.73,6.83,69.91,17,86,11.59,1.09,37.25,4.92,43-2,4.51-9.08,15.8-71.89,12-82-1.39-1.92-.1-0.6-2-2C3376.11,1594.12,3341.32,1598.77,3323,1599Zm-42,5q-31.995,10.005-64,20c0.77,22.54,28.18,62.83,39,80,13.59-.59,38.32-7.56,49-14,0.47-29.39-6.1-61.28-13-86h-11Zm134,3c-5.02,9.41-16.29,84.53-10,89,13.25,6.9,29.38,8.81,41,17,2.33-1,4.67-2,7-3,8.85-25.93,32.56-47.28,37-76C3475.93,1620.69,3438.9,1608.08,3415,1607Zm-225,30c-21.05,14.34-43.78,25.92-61,44,2.77,10.94,53,59.72,65,61l39-27c-0.75-17.61-27.65-67.89-38-78h-5Zm321,10c-18.32,15.81-29.62,53.16-40,76,3.22,5.73,34.94,31.16,42,32,13.57-9.57,57.09-45.63,60-62C3557.6,1677.95,3536.04,1650.53,3511,1647Zm-402,53c-10.26,9.39-50.02,51.02-43,67,24.15,8.61,46.76,30.93,74,34,10.28-5.93,29.4-29.66,32-42C3160.31,1745.65,3127.21,1702.15,3109,1700Zm225,8-61,12c-63.72,24.2-109.16,69.74-134,133-50.18,127.81,38.56,233.32,120,272,24,11.4,62.47,24.54,102,18,98.13-16.24,162.81-65.74,192-150,9-25.97,11.91-64.97,6-96C3537.76,1785.42,3466.03,1707.31,3334,1708Zm255,6c-20.05,18.44-41.92,36.75-58,59,1.02,12.04,17.29,38.55,26,44,9.16,2.85,74.72-31.7,79-39-10.82-22.78-25.02-46.94-42-64h-5Zm-539,70c-7.42,10.09-29.67,64.37-24,78,24.54,5.45,61.56,14.49,87,10,5.68-11.73,19.13-41.37,13-52C3101.02,1811.25,3079.38,1786.37,3050,1784Zm592,18q-36.99,19.5-74,39l12,51c20.48,3.67,71.75-6.51,90-13-0.85-22.4-11.44-61.84-23-77h-5ZM458,1840c27.78,0.16,50.058,15.13,71,24q48.5,19.005,97,38c111.663,44.14,229.161,83.21,345,121,32.71,10.67,156.5,42.15,170,62,17.26,25.39-6.32,66.63-15,88-7.59,18.69-23.73,22.96-33,38q-17.505,43.995-35,88c-3.64,12.7,5.97,20.82,3,36-4.31,21.99-26.21,76.29-41,88-10.74,8.5-32.761,2.3-43-1-15.615-5.04-93.843-33.48-105-31-17.988,4-26.23,25.67-45,31-21.786,6.18-76.943-20.25-93-27q-94.491-34.5-189-69c-25.121-10.14-57.1-14.26-77-30-16.253-12.85-6.52-49.14-19-60-30.914-26.91-108.653-22.78-122-66-6.586-21.33,15-81.59,25-95,6.667-8.94,19.2-11.77,25-22q8.5-22.005,17-44,8-25.995,16-52-2.5-14.505-5-29c4.813-18.12,22.362-71.35,35-81C445.335,1842.93,450.956,1842.88,458,1840Zm-5,11c-18.112,15.1-30.193,49.87-36,76-2.145,9.65,2.849,15.65,4,22,2.1,11.61-3.7,24.68-7,33q-16,42.495-32,85c-4.985,8.23-16.617,9.65-22,17-7,9.56-25.591,59.69-22,77,6.334,30.54,72.949,48.08,103,58q17,7.995,34,16c86.816,34.05,172.11,59.11,259,91,64.834,23.79,130.263,46.5,197,70,15.212,5.36,61.96,26.74,78,20,19.9-8.89,34.91-57.01,40-80q-1.995-16.995-4-34c6.15-25.71,22.6-58.26,33-85,7.51-19.31,21.33-22.78,32-37,9.37-12.49,33.96-72.36,23-87-16.42-21.95-134.08-47.56-169-61-111.121-42.76-226.573-74.98-336-118q-51-19.995-102-40C503.645,1865.67,482.955,1851.57,453,1851Zm2570,32c-1,1.33-2,2.67-3,4-7.42,16.37-4.68,57.82-1,76,17.64,4.84,70.8-7.99,88-13,0.33-.67.67-1.33,1-2,0.33-15.98,3.31-43.3-3-54Q3064.005,1888.5,3023,1883Zm635,20c-22.73,9.48-54.41,3.1-75,14-0.88,16.6-5.94,39.5-2,52,26.44,3.66,58.08,15.92,86,11,6.39-14.15,9.87-63.26,3-77h-12Zm-554,70c-25.25,9.74-58.4,2.57-81,14,0.38,24.23,11.97,54.97,22,73,23.02-.6,64.08-27.77,81-39q-7.005-23.505-14-47C3109.33,1973.67,3106.67,1973.33,3104,1973Zm470,19c-6.28,10.64-19.99,37.03-13,49,17.96,5.66,56.75,37.04,74,33,8.35-3.88,29.64-59.72,24-72C3631.22,1998.4,3604.83,1992.27,3574,1992Zm-442,53c-14.23,8.37-70.48,26.6-73,41,11.32,21.41,26.69,41.3,42,59,18.54-.98,53.04-46.09,65-59C3163.62,2074.55,3145.02,2046.19,3132,2045Zm410,14-27,33c2.09,10.34,54.51,63.24,61,62,21.66-6.62,33.24-38.32,47-54-0.33-1-.67-2-1-3C3616.63,2087.21,3557.77,2059.63,3542,2059Zm-361,45c-19.01,18.83-41.82,35.48-58,57,1.6,13.52,47.09,46.73,62,48,10.15-6.28,36.37-61.71,37-78C3215.32,2121.48,3195.22,2104.9,3181,2104Zm312,9q-18.495,12-37,24c1.03,20.86,26.87,60.68,37,77,1.67,0.33,3.33.67,5,1,21.23-10.37,43.95-24.93,60-41C3555.08,2162.28,3505.41,2114.73,3493,2113Zm-248,31c-9.38,14.13-39.76,62.07-37,80,20.48,8.5,43.18,20.43,70,21,0.33-.67.67-1.33,1-2,4.34-17.09,15.41-71.91,8-87C3271.64,2152.31,3261.27,2144.59,3245,2144Zm180,4q-19.5,7.005-39,14c-0.24,18.5,7.37,80.45,18,86,22.97-6.31,49.48-9.8,68-21C3471.91,2210.69,3438.61,2148.23,3425,2148Zm-77,14c-10.31,3.84-27.62-.53-36,4q-6,40.995-12,82c1,0.33,2,.67,3,1,10.52,6.99,60.37,7.94,72,1,0.33-.67.67-1.33,1-2,0.27-28.81-7.37-59.02-14-84Q3355,2163,3348,2162ZM465,2236c-1,1.33-2,2.67-3,4q5.5,22.005,11,44c8.58,14.7,60.965,26.59,80,34,66.25,25.8,137.646,47.84,202,76,11.064,4.84,53.358,21.78,68,18,10.012-2.58,16.769-12.32,24-18,5.667-4.45,13.479-7.46,16-15-34.814-8.78-72.014-27.11-104-40l-191-67C539.456,2261.61,497.138,2237.33,465,2236Zm3200,36c-0.33.67-.67,1.33-1,2l1,1,3-3h-3Zm-4,4v2C3661.98,2276.25,3661.91,2277.78,3661,2276Zm-4,4c-0.33.67-.67,1.33-1,2C3657.79,2280.66,3657.52,2282.18,3657,2280ZM2382,2441c77.64-1.02,152.58-11.52,172,49,2.38,7.4,6.86,20.94,4,33q-6,13.995-12,28c-31.57,44.58-144.38,29-216,29q-40.5-1.005-81-2c-13.6-4.43-30.08-19.34-37-31-5.36-9.03-10.09-25.53-9-37,6.23-65.71,50.55-68.01,123-68Q2353.99,2441.505,2382,2441Zm365,0c82.01-1.03,171.45-15.63,191,49,5.16,17.07,4.7,39.27-4,53-7.76,12.26-22.83,27.38-37,33-19.01,7.54-51.2,4-76,4-64.84,0-180.1,11.88-214-19-42.02-38.27-13.07-107.78,35-118Q2694.5,2442,2747,2441Zm-474,11c-17.23,6.36-28.7,4.53-41,14-26.35,20.29-22.9,78.21,5,94,26.34,14.91,68.48,6.7,106,9h87c60.09,0.9,106.45,2.33,118-48,7.87-34.29-20.41-60.31-42-67-18.32-5.68-47.25-2-69-2H2273Zm387,0c-18.09,6.66-30.12,4.24-43,14-29.35,22.25-20.19,78.12,7,95,21.49,13.34,60.06,8,93,8h129c16.71-1.02,36.59,3.84,50-3,7.92-4.04,9.71-16.14,14-19,9.89-6.59,16.15-4.45,20-17,11.24-36.71-12.41-65.74-36-75-18.06-7.09-50.87-3-74-3H2660Zm-278,21c46.03,3.95,52.9,61.21,17,72C2352.47,2558.99,2328.53,2493.73,2382,2473Zm380,3c16.06,4.04,35.91,28.2,42,43-1.67,1.33-3.33,2.67-5,4-2.39-15.77-22.09-26.74-32-36-3.33.33-6.67,0.67-10,1-9.3,6.81-26.94,21.88-29,35,0.33,1,.67,2,1,3,11.43,6.65,33.19,19.8,55,10,5.58-2.51,6.69-7.68,14-7v1q-1.995,5.505-4,11c-11.21,8.54-53.87,3.41-63-2-2.07-10.47-5.04-15.23-10-22C2730.34,2501.03,2748.57,2488.3,2762,2476Zm-381,3c-6.52,3.84-14.08,6.63-18,13-12.13,19.7-.31,49.72,24,48C2424.85,2537.32,2423.72,2477.43,2381,2479Z"/>
  </g>
</svg>
