<svg xmlns="http://www.w3.org/2000/svg" width="499" height="197.844" viewBox="0 0 499 197.844">
  <defs>
    <style>
      .cls-1 {
        fill: #3d3d3d;
        fill-rule: evenodd;
      }
    </style>
  </defs>
  <path class="cls-1" d="M675,931c0.014-12.712.119-27.187,5-36,8.718-15.739,24.722-23.484,40-33,11.194-6.972,22.56-16.354,35-22h5c2.134-1.035,5.6-4.794,8-6,22.7-11.4,47.27-21.03,70-31,7.314-3.208,14.774-2.8,22-6,19.706-8.719,43.813-15.939,65-23,32.225-10.739,67.818-13.823,101-23,34.43-9.522,76.9-9.788,110-17,8.6-1.874,35.86-.52,38,3-3.8,2.694-.39,3.37-6,4-4.42,2.86-11.47,2.272-17,4-13.4,4.19-28.18,7.588-42,13-64.01,25.065-137.271,43.512-202,68-5.2,1.968-8.444,1.042-14,3-11.371,4.007-24.773,10.607-36,15-8.95,3.5-17.546,3.733-26,8-35.619,17.977-74.475,30.643-108,51-9.676,5.876-20.143,10.863-30,17C687.044,923.708,683.441,929.6,675,931Z" transform="translate(-675 -733.156)"/>
</svg>
