<svg xmlns="http://www.w3.org/2000/svg" width="743" height="630" viewBox="0 0 743 630">
  <defs>
    <style>
      .cls-1 {
        fill: #fff;
      }

      .cls-1, .cls-2 {
        fill-rule: evenodd;
      }
    </style>
  </defs>
  <path id="Color_Fill_2" data-name="Color Fill 2" class="cls-1" d="M226,132c19.845-.128,35.672,4.5,50,9H466c10.928-2.933,25.571-6.263,38-9,13.9-3.062,29.788,2.418,40,5,33.909,8.575,65.791,13.987,87,35a107.732,107.732,0,0,0,1,15c7.779,2.205,11.414,7.844,17,12,19.448,14.47,22.736,36,32,61,18.035,48.672,30.28,99.588,45,152q4,26,8,52,0.5,13,1,26a81.374,81.374,0,0,1,0,32v17c-5.84,25.252-8.248,47.1-26,60a130.866,130.866,0,0,1-23,13c-7.261,3.15-31.432,14.64-41,12-9.446-2.607-21.6-11.884-27-19-1.591-2.1-1.974-4.451-4-6-18.125-13.856-32.859-31.286-51-45-11.142-8.423-18.144-22.076-32-28-14.759-6.31-39.611-4-60-4H450c-9.539,2.1-23.763,1-35,1H289c-12.021-2.6-28.349.216-42-1l-10-1c-7.04,1.512-15.819,1.387-22,4-16.059,6.787-27.145,21.719-39,33-14.026,13.347-28.517,27.3-44,39-9.237,6.981-23.51,32.349-43,27-22.369-6.139-57.067-21.451-68-39C4.386,558.332,8.047,510.165,9,472c0.491-19.674,4.518-40.362,9-57,3.4-12.622,3.123-24.083,7-36,11.66-35.846,22.367-73.011,34-108,4.507-13.556,8.859-25.758,13-38,2.336-6.905,2.349-12.617,6-18,2.62-3.863,16.049-17.221,20-20,3.549-2.5,10.86-4.331,13-8,5.268-9.033-1.906-16.586,9-24,16.761-11.394,52.041-19.87,74-26C202.151,134.725,219.757,135.909,226,132Z"/>
  <path id="Color_Fill_1_copy" data-name="Color Fill 1 copy" class="cls-2" d="M509.585,132.069c9.8-.172,19.288,1.422,27.588,3.179l15.744,2.745A357.1,357.1,0,0,1,601.16,153.6c7.115,2.937,21.935,8.261,26.143,13.438,1.539,1.893,3.368,4.31,3.9,7.08,0.767,3.991-.723,9.548,1.011,12.571,5.028,1.813,9.8,6.186,13.867,9.248,7.6,5.732,15.143,12.909,20.077,21.241,3.4,5.748,4.894,13.315,7.366,19.8,6.112,16.02,11.152,33.015,16.466,49.851q12.635,40.022,25.133,81.207,5.417,23.116,10.833,46.238c3.439,14.512,4.5,29.5,7.222,44.938q0.649,8.67,1.3,17.34,0.721,9.174,1.444,18.351v5.924c1.06,6.713.6,15.332-.433,21.674l-1.011,16.762c-2.724,16-4.155,31.109-10.977,42.771-10.924,18.672-30.744,26.739-51.854,35.256a120.632,120.632,0,0,1-18.489,6.214c-7.66,1.719-13.521-1.919-17.91-4.48-10.6-6.182-17.213-16.259-26.433-23.7l-17.044-15.894c-9.433-7.61-18.1-16.474-27.01-24.709-12.273-11.35-22.56-25.414-40.877-30.633-4.3-1.226-8.57-1.354-13.577-2.168l-59.943.578c-47.765,0-95.714,1.192-143.429.145l-54.309-.434c-11.244-1.774-28.048-.525-36.11,2.746-14.094,5.717-23.429,16.01-33.51,25.72q-24.48,22.756-48.966,45.516c-11.266,9.081-20.741,24.993-37.7,27.888-5.2.887-12.848-2.439-16.466-3.9-13.51-5.46-27.214-9.5-38.71-16.906-8.486-5.463-16.343-12.2-21.233-21.24-3.54-6.546-6.072-14.794-7.8-22.975l-1.3-10.693C9.2,539.793,9.285,530.3,7.8,521.2l-0.289-9.97a52.847,52.847,0,0,1,.144-14.45l0.722-14.883,1.589-20.663,3.611-26.876c3.339-15.905,5.9-31.626,9.822-46.961,8.487-33.142,18.984-65.805,29.033-97.534,5.507-17.39,10.587-34.691,17.044-51.3,2.817-7.245,4.195-15.926,8.233-22.108,2.443-3.74,5.716-6.73,8.811-9.826l7.511-7.947c5.527-4.341,11.248-7.881,17.188-11.848,0.852-5.881.558-13.792,3.322-17.918,3.815-5.695,12.619-8.949,19.211-11.848,17.28-7.6,35.244-13.245,55.32-18.351,8.021-2.041,16.74-3.371,25.277-5.058l8.522-.722c5.111-.826,12.568-1.226,18.055-0.289,10.506,1.792,19.988,3.056,29.755,5.491,2.6,0.646,4.863,2.387,6.933,2.745l71.5-.144h116.13c2.5-.417,3.791-1.692,6.066-2.312l13.144-2.6,17.189-3.179Zm-1.734,6.358c-3.058,1.112-11.321.292-13.144,2.167v0.145H495c2.059,0.829,5.29-.124,7.8.289,5.822,0.956,11.048,1.231,16.033,2.889,35.858,11.932,74.39,21.817,105.73,38.581l0.578-.145c-0.014-2.657.23-6.511-.722-8.525-2.9-6.138-16.335-10.285-22.966-13.294-12.886-5.847-26.909-10.325-41.6-14.3-7.157-1.938-14.269-2.583-21.811-4.335A133.76,133.76,0,0,0,507.851,138.427Zm-280.069.289-5.055.433-17.189,2.457-23.4,5.057a401.809,401.809,0,0,0-40.01,13.727c-6.085,2.447-18.735,7.4-22.1,11.993-1.707,2.331-1.158,7.14-2.167,10.115l0.145,0.289c2.6-.237,8.791-4.437,11.555-5.636l26.288-10.692,72.076-23.553c3.65-.909,7.19-1.264,11.266-1.878,3.986-.6,8.244.225,11.7-0.578v-0.434H250.6l-5.2-.289A110.767,110.767,0,0,0,227.782,138.716Zm12.422,8.525-6.067.722-11.844,3.324-36.976,12.571-27.011,8.525c-24.591,9.578-47.477,19.483-65.287,35.69-10.612,9.658-13.117,20.24-18.344,35.113-3.135,8.921-6.314,17.889-9.244,27.165-12.174,38.54-24.391,77.6-35.532,117.764-3.015,10.87-4.582,21.793-7.222,33.089-2.034,8.706-2.732,17.715-4.478,27.165-2,10.819-1.9,22.612-3.755,33.957l-0.289,11.993a88.881,88.881,0,0,0,0,24.42q0.578,7.512,1.156,15.027L16.755,549.8c3.574,17.23,7.6,32.96,19.355,41.9,12.275,9.335,26.979,15.873,43.043,21.53,4.94,1.739,11.653,5.653,18.344,4.045,3.942-.947,6.927-3.448,9.822-5.49,9.648-6.809,16.536-16.127,25.566-23.409L180.55,544.17c11.333-10.291,20.761-20.647,36.977-26.3,5.979-2.084,12.652-1.418,19.933-2.6l28.743,0.867,35.821,0.433,139.385-.289,41.165-.289,13.722-.433,8.233-.145c12.754,0,22.288,2.341,30.911,6.358,9.943,4.632,16.267,12.337,24.265,18.784l4.334,4.48,50.12,46.527c9.658,7.785,16.67,19.263,28.744,24.564,7.044,3.094,14.994-.663,20.8-2.745,16.914-6.064,34.934-12.717,46.51-24.275,8.45-8.436,12.4-20.148,15.6-33.957q1.227-8.885,2.455-17.773l1.011-16.617a76.842,76.842,0,0,0,.289-21.818c-0.864-5.331.084-10.8-.722-15.75q-0.144-3.468-.289-6.936c-1.135-7-1.05-13.541-2.311-20.085-1.146-5.946-1.35-11.953-2.456-17.484-2.042-10.212-3.338-20.391-5.777-29.91-3.023-11.8-4.96-23.4-8.089-34.679-10.194-36.759-20.651-72.1-32.932-107.071-3.615-10.294-6.657-20.513-10.4-30.345q-2.744-7.657-5.489-15.316c-2.572-4.405-6-7.856-9.1-11.7-4.3-5.339-10.415-9.244-16.178-13.149-15.32-10.383-33.26-17.439-52.142-24.42-13.506-4.993-27.774-8.892-41.744-13.872-11.024-3.929-22.082-7.923-34.232-10.4-8.6-1.756-20.034-.578-29.61-0.578H240.2Zm6.789,8.67,217.526,0.722h29.033c5.186,0,11.076-.464,15.455.578,7.639,1.817,13.55,5.555,17.477,11.126,2.546,3.611,5.348,9.938,4.189,16.906-2.032,12.215-6.585,16.363-12.566,24.131L504.529,226.28c-20.159,26.254-41.97,51.263-62.109,77.449l-13.433,16.617c-5.246,6.842-10.67,15.186-19.21,18.64-3.548,1.435-8.82,1.729-13.578,1.734h-6.644l-18.344.289c-5.52.842-16.934,0.538-22.244-.289-6.1-.949-12.069-0.053-16.61-2.312-5.17-2.571-8.7-7.087-12.133-11.415-5.888-7.416-12.2-14.566-18.055-22.108q-9.822-11.847-19.644-23.7c-14.94-19.056-30.488-37.51-45.5-56.5-8.113-10.262-25.188-24.51-24.266-42.481,0.651-12.669,8.844-21.255,19.066-24.42,3.375-1.045,7.317-.989,11.122-1.589Zm-1.445,2.889-2.889.145-10.4,1.734c-10.374,3.591-19.224,14.024-15.889,28.9,2.184,9.742,8.2,14.957,13.433,21.53,5.037,6.332,10.373,12.444,15.311,18.784,19.643,25.223,40.716,49.29,60.376,74.415,5.926,7.574,12.074,14.925,18.2,22.253,2.525,3.019,5.166,6.677,8.667,8.669,4.834,2.752,11.436,1.54,18.344,2.6l8.377,0.145c8.578,1.317,18.963-.145,27.733-0.145,7.112,0,16.256.674,21.666-1.445,6.731-2.636,10.876-8.584,15.021-13.871,5.567-7.1,11.655-13.8,17.044-21.1L458.6,279.454q22.026-27.739,44.055-55.486l12.855-16.039c4.644-6.059,10.25-10.868,11.988-19.94,3.049-15.912-7.236-25.452-18.632-28.033-4.474-1.013-10.468-.433-15.6-0.433H461.775Zm92.731,6.792,27.01,11.559,1.589,3.035c1.78,3.427,3.235,5.774-.145,9.1-2.184-.923-2.907-4.6-4.188-6.5s-3.2-2.065-5.633-2.89c-1.314-.445-3.2-1.387-4.767-1.012v0.145c0.346,1.826,1.724,2.876,2.6,4.19l5.922,9.97c0.81,1.237,1.913,1.752,2.022,3.757l-1.733,2.746h-0.145l-17.332-25.576c-1.75-2.631-3.083-5.825-5.345-7.947C338.182,165.977,338.231,165.784,338.279,165.592Zm64.709,0c0.307,1.111-4.084,6.834-4.911,8.091l-12.133,18.062c-1.488,2.36-3.182,6.59-5.489,8.092l-0.577-.433c-0.318-.934-1.169-1.745-0.867-3.179l8.377-13.872c0.747-1.2,1.919-1.879,2.167-3.612l-0.144-.289c-10.8.311-13.481,9.77-17.622,16.761-1.42,2.4-4.18,5.213-4.767,8.092-0.529,2.6.849,5.825,1.3,7.947,0.462,2.172,1.146,10.207,2.311,11.271l0.723-.578a2.358,2.358,0,0,1-.723,1.589c-1.269-1.217-1.6-3.744-2.311-5.49L362.4,202.583l7.656-13.727c1.545-3,4.23-10.195,6.644-11.994ZM259.7,174.984c4.063-.029,6.734.8,9.1,2.456,4.175,2.919,7.136,8.566,10.111,12.716l9.533,12.571c1.726,2.288,4.131,4.488,5.344,7.225,2.875,6.484.336,13.957-4.477,16.906-4.405,2.7-11.714,1.881-15.311-.867-4.046-3.092-7.739-9.781-10.833-14.016-4.651-6.367-20.537-20.587-12.711-31.5C252.845,177.149,255.693,176.831,259.7,174.984Zm221.427,0.144c9.212-.127,16.723,7.961,13.144,17.484-0.867,2.307-2.608,3.947-3.9,5.78-4.132,5.864-9.024,11.084-13.288,16.762-2.761,3.675-5.524,8.743-9.389,11.27-3.4,2.226-10.039,2.766-13.866.434-5.244-3.195-8.34-11.593-4.333-18.207l16.177-20.373c2.576-3.4,5.155-8.124,8.666-10.549C476.332,176.355,478.7,176.26,481.13,175.128Zm-219.693,1.445c-3.519,1.319-6.32,1.024-8.522,3.468-9.3,10.32,6.553,23.531,11.122,30.2,2.8,4.081,8.107,12.664,11.988,15.172,3.441,2.224,9.605,1.871,12.855-.289,3.681-2.447,5.838-8.46,3.756-13.727-1.557-3.939-5.116-7.016-7.511-10.259l-7.367-9.682C273.7,185.8,270.256,177.351,261.437,176.573Zm219.549,0.289c-2.091.978-4.044,1.145-5.778,2.312-3.971,2.672-9.425,11.5-12.566,15.606l-11.7,14.594c-3.439,5.7-.891,13.31,3.611,16.039,3.458,2.1,9.188,1.583,12.277-.434,3.523-2.3,6.177-6.889,8.667-10.259l11.555-14.738c1.889-2.489,4.388-4.674,5.633-7.8C496.047,183.734,489.372,176.739,480.986,176.862ZM261.87,184.521l1.011,0.144c1.218,0.472,2.834,2.341,2.311,3.613h-0.433a5.99,5.99,0,0,0-1.734-2.312,1.494,1.494,0,0,0-.722.433l-0.144.578a5.519,5.519,0,0,1,1.444,2.456,3.607,3.607,0,0,1-1.444,1.734,5.224,5.224,0,0,1-3.467-3.9l0.434-.433c1.118,0.92,1.538,2.668,3.322,2.889v-0.289l0.144-.433a6.177,6.177,0,0,1-1.878-3.179Q261.293,185.172,261.87,184.521Zm216.949,1.3,0.578,0.289c-0.254,1.207-1.026,1.346-.578,2.457a7.034,7.034,0,0,1,2.744,2.022,1.077,1.077,0,0,1-.289.867c-1.409-.632-1.955-1.8-3.755-2.023a6.154,6.154,0,0,1-1.878,1.012l-0.144-.289A15.509,15.509,0,0,1,478.819,185.821Zm-212.905,4.624a1.733,1.733,0,0,1,1.3.289,4.846,4.846,0,0,1,2.6,3.323c-1.69.121-1.7,0.987-3.322,1.156l-0.144-.289q-0.074-.721-0.145-1.445l1.445,0.723,0.722-.434V193.19c-1.1-1.845-2.945-.795-3.9.578,0.457,1.186,1.267,1.762,1.444,3.179l-0.144.289-0.722-.578c-0.633-1.4-1.869-2.029-2.023-3.9Zm209.005,1.589,0.722,0.145a5.706,5.706,0,0,1,2.745,3.323v0.145c-0.866.366-2.152,0.631-2.745,1.3q0.289,0.8.578,1.59l-0.433.144c-1.38-.645-3.431-1.743-4.189-3.034A6.383,6.383,0,0,1,474.919,192.034Zm-0.578,1.445q-0.649.723-1.3,1.445a1.067,1.067,0,0,0,.578.578l1.156,0.145,0.722-.289a3.817,3.817,0,0,0,.289-1.734Zm-99.663,1.734c1.2,0.5,1.413,1.936,2.022,3.035l2.311,3.9c0.52,1.965-3.983,10.851-4.767,13-0.767,2.108-1.351,5.39-2.888,6.791q1.589-9.392,3.177-18.784l-2.166-3.613A9.184,9.184,0,0,1,374.678,195.213Zm-104,.289,0.722,0.289v0.578c-1.239.782-2.78,1.547-3.033,3.324,0.474,0.836,1.369,1.481.722,2.167a7.356,7.356,0,0,1-2.311-3.323C268.042,197.449,269.3,196.516,270.681,195.5Zm197.883,3.757,6.066,0.867c-0.083.58,0.007,0.432-.289,0.723-1.985,1.169-2.734-.336-4.766.144v0.145l0.144,0.433c1.315,0.443,1.72.8,1.589,2.746q-0.144.649-.289,1.3h-0.144l-0.434-.145c-0.842-1.753-2.2-3.467-2.455-5.635C468.179,199.645,468.371,199.452,468.564,199.259Zm-194.994,1.59,1.155,0.144a7.274,7.274,0,0,1,2.6,3.035c-0.289,1.016-2.259,1.609-3.033,1.589a2.329,2.329,0,0,0-2.311-2.023c-0.048.193-.1,0.385-0.145,0.578,0.568,1.064,1.653,1.614,1.878,2.89-0.1.241-.193,0.482-0.289,0.722l-1.155-1.011C270.738,203.1,269.723,203.3,273.57,200.849Zm1.011,1.445-1.156.722v0.578l1.445,1.156a1.233,1.233,0,0,0,1.3-.578A2.756,2.756,0,0,0,274.581,202.294Zm191.383,0.722H466.4a3.662,3.662,0,0,1-.722,2.167l3.178,2.457v0.867l-0.289.144-3.467-2.023c-2.713.408-3.221,3.2-4.622,4.913l0.289,0.434c2.032-.14,2.072-2.175,3.755-1.879l1.012,0.434,0.288,1.445c-0.56,1.173-1.719,3.207-3.033,3.612V215.3l-0.144-.578a12.409,12.409,0,0,0,2.166-2.89v-0.144h-1.877a6.035,6.035,0,0,1-1.445,2.023,2.2,2.2,0,0,1-2.311-1.156C459.679,209.7,464.156,205.093,465.964,203.016ZM278.047,206.2a5.37,5.37,0,0,1,3.178,4.046c-1.474-.31-1.76-1.525-2.744-2.312h-1.012a3.754,3.754,0,0,0-1.444,1.589c0.364,1.529,1.484,1.994,1.444,3.613l-0.288.144a6.839,6.839,0,0,1-2.6-4.19A36.547,36.547,0,0,1,278.047,206.2Zm301.591,3.468c19.331-.266,32.289,17.042,23.977,35.546-3.469,7.722-10.641,11.847-20.366,13.438-2.611.427-5.577-.352-7.511-0.867-12.226-3.258-23.138-16.746-16.9-32.512a25.181,25.181,0,0,1,14.733-14.305Zm-297.4,1.878c1.373,0.526,2.365,2.5,3.178,3.613-0.048.24-.1,0.481-0.145,0.722h-0.144c-2.909-1.2-2.349-.368-5.056,1.156l-0.577-.144-0.145-.289C280.93,214.107,282.541,215.664,282.236,211.541Zm297.4,1.012-5.777,1.3a22.234,22.234,0,0,0-13,13.872c-4.534,14.876,8.363,30.835,23.544,28.032,8.079-1.492,13.912-5.961,17.044-12.427,6.511-13.44-3.086-26.779-13.433-30.055C585.618,212.516,582.789,212.527,579.638,212.553Zm-413.821,7.08c33.708-.473,55.065,17.868,65,41.181,6.063,14.228,6.971,34.53,1.011,49.707-9.462,24.1-27.907,38.256-57.053,42.915-9.686,1.548-21.717-1.47-28.022-3.757-21.153-7.672-34.764-22.174-41.887-43.927-2.4-7.333-4.15-18.962-2.312-28.465a80.678,80.678,0,0,1,3.467-13.727c6.628-16.986,20.308-32.8,37.554-39.014l12.278-3.757Zm405.733,5.78,4.044,0.144,5.778,7.081c2.933-.734,4.676-5.283,6.644-7.225,1.591-.07,4.041-0.287,4.766.578l-8.955,10.115c-0.978,2.3.347,6.434-.433,8.669l-3.467-.144c-0.721-2.535.534-6.877-.722-8.814-1.577-2.432-8.055-7.844-8.522-10.26ZM166.684,229.17l-3.756.289c-3.808.7-8.029,1.241-11.41,2.6-17.625,7.085-29.2,18.149-36.11,35.979-1.284,3.313-1.815,7.337-2.456,11.126a49.359,49.359,0,0,0,.578,17.34c4.931,21.734,16.2,35.285,34.954,43.059,5.829,2.416,16.138,5.609,25.277,4.191,23.584-3.66,40.265-14.785,48.243-33.812a71.882,71.882,0,0,0,4.045-12.716c2.836-13.22-.478-28.079-5.489-36.7C210.02,242.387,195.3,229.219,166.684,229.17Zm-14.733.867-4.044,1.3-10.978,5.491c-13.878,8.759-22.579,22.419-26.577,41.181-1.639,7.693-.282,17.412,1.589,23.553,5.874,19.275,17.416,33.287,35.677,40.025a60.1,60.1,0,0,0,22.244,3.757c2.372,0,5.245.188,7.077-.578-33.627.424-49.545-12.64-60.665-35.112-5.763-11.648-6.722-32.576-.866-45.083,5.312-11.346,12.83-21.434,23.255-27.6l10.544-5.346c1.5-.542,2.985-0.7,4.188-1.589h-1.444Zm12.277,11.848,10.689,0.289c16,2.994,26.455,11.052,33.51,22.975a46.325,46.325,0,0,1,4.478,11.993c2.144,8.5.365,19.182-2.167,25.576-6.232,15.736-17.983,24.949-36.688,28.321-8.551,1.542-17.15-1.158-22.821-3.612-17.138-7.417-32.868-28.765-24.7-54.62,3.665-11.6,12.628-21.926,23.254-26.587l9.1-3.179Zm2.745,4.769-0.722.433c-0.082,3.425.49,8.33,1.733,10.548,1.407,0.213,4.182.406,5.344-.144,0.655-3.063,2.12-7.443,1.3-10.548l-0.289-.145Zm-5.922.722c-1.857,1.055-6.1.84-7.222,2.6-0.443,1.53,3.461,7.858,4.333,9.248,1.794,0.323,4.13-.674,5.922-1.156,0.981-3.028-.633-7.538-1.3-10.548Zm16.755,0.434c-1.03,1.825-2.375,8.893-1.156,10.981,1.518,0.26,3.89,2.3,5.489,1.59,0.9-.4,4.839-8.661,4.333-9.826C183.7,249.682,181.318,248.038,177.806,247.81Zm-27.444,3.612-7.222,4.624-0.144.867c0.994,1.242,5.784,7,7.077,7.225,0.777,0.135,5.182-2.8,5.633-3.324C155.285,259.13,151.8,251.562,150.362,251.422ZM332.5,252.144l70.2,0.145c4.829,0.211,21.306-1.223,22.677,1.589q0.144,21.528.289,43.06c0.381,3.667.78,11.414-1.589,12.571-1.509.691-4.625,0.289-6.644,0.289H340.445c-5.164,0-20.394,1.041-23.688-.578-1.13-3.81-.866-10.049-0.866-15.172V268.039c0-3.063-.841-12.3.288-14.3C318.25,250.053,328.228,253.76,332.5,252.144Zm-143.429.434c-1.527,2.619-3.98,6.335-4.333,9.681l4.333,3.468c1.975-.13,7.649-5.718,7.8-7.658C195.6,256.11,191.907,252.763,189.072,252.578Zm133.463,1.011c-1.5.556-3.681,0.086-4.911,0.723q-0.144,17.988-.289,35.979,0.144,8.67.289,17.34l0.578,0.433,25.71,0.289H398.8l18.344-.144c1.944-.274,5.815.68,6.789-0.578q0.216-7.947.433-15.895l-0.144-24.275c0-4.3.463-9.711-.434-13.294-2.795-.914-7.158-0.578-10.688-0.578H322.535Zm-182.428,5.636c-1.261,1.177-5.719,6.071-4.911,7.947l8.955,4.19c1.315-.754,3.591-3.586,3.9-5.2q-3.394-3.468-6.789-6.936h-1.155ZM530.24,259.8c12.821-.126,21.157,8.069,24.121,17.917,4.839,16.076-9.882,33.757-26.288,31.067-16.559-2.716-28.981-21.2-17.766-38.147a25.426,25.426,0,0,1,13.866-9.97Zm-363.556.289c-2.313.95-5.081,0.879-7.222,1.734a26.587,26.587,0,0,0-15.744,16.761c-4.623,15.04,4.159,27.139,13.866,31.789,3.07,1.471,7.954,3.74,13,2.89,11.557-1.948,19.253-7.2,23.255-16.617a23.47,23.47,0,0,0,1.588-12.282C193,269.121,184.333,260,166.684,260.092Zm462.642,0.289c16.882-.229,31.137,16.165,23.832,33.812-3.813,9.212-10.795,13.86-22.677,15.172-15.541,1.715-28.885-17.109-23.11-32.8A25.271,25.271,0,0,1,622.1,261.826Zm-430.432.433-7.078,7.08c0.154,1.645,2.336,4.988,3.611,5.636l9.245-4.624c-0.129-1.986-3.786-6.885-5.056-8.092h-0.722Zm330.046,1.879-5.056,1.011c-6.357,2.44-11.4,6.841-13.721,13.294-5.136,14.272,7.551,31.292,21.666,29.043,9.137-1.455,15.631-5.523,18.777-12.86C557.563,276.957,545.181,262.559,528.94,262.693Zm99.808,0.578-6.356,1.445a21.961,21.961,0,0,0-12.855,13.871c-4.161,14.586,8,30.312,22.822,27.888,9.16-1.5,15.266-6.052,18.344-13.583C657.32,276.7,644.127,263.145,628.748,263.271Zm-495.43,6.068c-1.848,1.854-2.684,6.027-3.177,9.1l0.288,0.289c3.02,0.612,7.14,1.738,10.4,1.156l2.022-5.78C142.638,273.41,134.656,269.454,133.318,269.339Zm71.787,2.312c-2.556,1.891-6.517,2.475-8.666,4.769q0.721,3.033,1.444,6.069c2.175,0.058,10-.862,10.689-1.879,0.44-1.536-1.709-7.726-2.456-8.959h-1.011Zm336.545,3.035v0.867l-7.944,8.38c0.678,3.369,6.4,6.688,8.089,9.826-0.048.1-.1,0.193-0.145,0.289-4.311-.008-5.416-0.424-7.222-2.745-0.786-1.011-2.439-4.071-3.755-3.9-2.761.939-3.422,5.06-5.778,6.358l-5.055.578-0.144-.144v-0.578l7.944-8.815v-1.011c-1.616-1.216-7.64-7.368-8.089-9.248,6.95-.092,7.9,3.3,10.833,7.081h0.578C534.1,278.4,535.062,274.169,541.65,274.686Zm85.22,0.433c4.963-.1,12.529-0.693,13.578,3.179,0.749,2.766-1.536,5.113-1.156,6.358l1.589,1.156c1.273,1.559,1.281,5.237.144,7.08-0.962,1.561-15.607,2.852-18.633,1.445-0.029-3.852-.851-16.551.289-19.073Zm0.145,3.468c-0.773.96-.366,2.881-0.723,4.335,0.049,0.144.1,0.289,0.145,0.434,2.73,0.4,7.829.5,9.822-.578a5.221,5.221,0,0,0-.145-3.613C633.812,278.409,630.151,278.57,627.015,278.587ZM130,281.188a2.047,2.047,0,0,0-.433.434c-0.974,2.14-.6,7.227-0.145,9.536,1.434,0.4,10.154-1.239,10.689-2.023,0.567-1.267.368-5.758-.433-6.357Zm77.709,2.456q-4.694.867-9.389,1.734-0.216,3.252-.433,6.5l0.289,0.144,10.255,1.445c0.048-.144.1-0.289,0.145-0.433,1.027-2.014.857-7.395,0.288-9.393h-1.155Zm419.021,2.746c-0.332.6-.771,4.109,0.144,4.768,1.907,0.786,8.823-.155,10.544-0.578a4.32,4.32,0,0,0-.144-3.9C634.4,285.984,630.091,286.375,626.726,286.39Zm-487.341,5.924c-2.822,1.181-6.836.4-9.389,1.734,0.355,3.115,1.285,6.912,2.889,8.959,1.941-.325,8.844-3.791,9.533-5.2l-1.878-5.491h-1.155Zm57.92,2.312c-0.954,1.025-2.24,4.26-2.022,5.78,2.976,1.41,5.846,3.716,9.244,4.479,1.356-2.476,2.937-5.311,3.322-8.669l-0.289-.289A84.73,84.73,0,0,0,197.305,294.626ZM143,301.128c-1.645,1.033-8.432,3.315-8.667,5.058,1.206,2.271,3.18,5.7,5.2,7.225,2.713-.763,6.4-4.91,7.655-7.225a10.178,10.178,0,0,0-3.322-5.058H143Zm50.12,1.734a19.719,19.719,0,0,1-3.177,3.9l0.144,0.433c0.509,1.67,5.418,6.492,6.933,7.37h0.434a20.939,20.939,0,0,0,5.488-6.936C201.708,306.121,195.621,302.95,193.116,302.862ZM149.062,308.5l-6.933,6.791q0.072,0.361.145,0.722c0.912,1.817,5.219,4.726,7.366,5.2,1.35-1.357,4.85-7.67,4.478-9.97C152.482,310.331,151.384,308.593,149.062,308.5Zm429.854,0.722c18.511-.252,32.06,16.634,24.122,34.824-3.309,7.58-10,12.421-19.355,14.016-18.052,3.079-32.3-16.461-25.855-32.945a25.04,25.04,0,0,1,14.444-14.45Zm-391.866.289-4.333,3.035c0.253,1.855,3.666,8.449,4.911,9.392,1.969-.765,6.22-3.117,7.222-4.913C195.223,315.85,188.713,309.664,187.05,309.509Zm392.01,2.6-5.488,1.156a21.837,21.837,0,0,0-13.289,13.149c-5.3,14.185,7.559,31.344,21.955,29.044,9.112-1.456,15.274-5.864,18.633-13a19.538,19.538,0,0,0,1.444-10.259C600.362,319.74,593.466,311.991,579.06,312.11Zm-422.054,1.156c-1.223,1.361-5.022,8.165-4.044,9.97,1.96,0.745,6.047,3.011,8.233,1.734,0.4-2.525,2.136-8.057,1.011-10.259C160.342,314.231,159.184,313.331,157.006,313.266Zm21.955,0.434-4.622,1.589a43.19,43.19,0,0,0,1.3,10.259l0.289,0.145c3.4,0,5.793-1.443,8.522-2.168l0.144-.289c-0.088-2.621-3.25-7.4-4.477-9.536h-1.156Zm-11.122,1.733-2.6.434c-0.318,3.333-1.78,6.869-1.156,10.4,2.436,0.195,7.034.678,8.955-.289,0.03-2.958-.616-8.172-1.877-10.4Zm411.221,7.081c1.311,0,3.165-.225,4.045.289,1.161,0.677,1.5,2.831,2.166,4.046,1.684,3.063,7.142,11.7,7.511,14.883l-0.144.144a15.667,15.667,0,0,1-4.044-.289q-1.011-2.022-2.023-4.046c-2.785-.55-10.022-0.648-11.844.578a10.27,10.27,0,0,1-2.022,3.757c-1.263.081-3.144,0.474-3.9-.289l6.789-13.293c0.75-1.471,1.516-4.514,2.889-5.347Zm1.3,4.768c-1.2,1.908-3.064,4.7-3.322,7.225,1.9,0.206,5.848.486,7.511-.289v-0.145l-3.466-6.791H580.36Zm-100.385,7.369c34.627-.5,56.893,18.92,67.164,42.916,6.338,14.807,7.277,36.372,1.011,52.162a69.658,69.658,0,0,1-43.043,41.182c-5.492,1.886-11.53,2.477-17.91,3.467-9.97,1.548-24.173-2.354-30.477-5.057-20.292-8.7-33.166-22.441-40.588-44.071-2.508-7.308-4.887-19.745-2.744-29.766,1.089-5.1,1.809-10.254,3.611-14.739,7.909-19.688,21.423-34.244,41.454-41.759a76.206,76.206,0,0,1,13.433-3.468Zm192.249,0.867c7.671,0.115,9.014,12.561,10.978,18.785,6.25,19.805,11.851,40.264,17.91,60.543,2.173,7.272,5.874,21.572-3.033,24.131a7.748,7.748,0,0,1-3.9-.433c-5.714-1.714-6.342-9.421-7.944-15.172-0.418-1.5-.427-3.28-1.3-4.335-1.974-2.386-6.728-2.49-8.377-5.2q-4.767-17.265-9.534-34.535c-0.746-2.376-3.669-9.913-3.033-12.571l4.189-7.8c0.509-2.1-.6-3.87-1.011-5.2-1.513-4.923-3.052-11.127.144-15.172C668.565,336.969,670.331,336.51,672.224,335.518Zm0.578,1.59c-1.664.725-3.164,1-4.189,2.312-2.986,3.823-1.107,10.13.145,14.594,0.342,1.22,1.32,2.956,1.011,4.624-0.605,3.266-3.509,5.266-4.189,8.236-0.64,2.8,2.2,9.44,2.889,11.848q3.249,11.921,6.5,23.842c0.981,3.341,1.172,7.49,2.889,10.259,1.738,2.806,6.906,2.914,8.666,5.636,3.064,4.739,1.218,21.437,10.544,19.218,9.034-2.151,5.411-12.733,3.467-19.652-5.664-20.148-10.96-40.858-17.767-60.254C680.912,352.479,678.761,337.347,672.8,337.108Zm-218.1,4.913-0.723.578h0.434a1.614,1.614,0,0,0,.577-0.578H454.7Zm-187.339.722c33.069-.494,55.419,21.428,64.853,44.938,5.642,14.059,4.635,35.7-.866,48.984-8.186,19.768-23.932,33.91-45.643,40.17-4.879,1.406-10.033,1.328-15.6,2.167a26.351,26.351,0,0,1-7.8-.433l-7.655-.867a83.905,83.905,0,0,1-15.744-5.491c-17.975-7.924-31.037-23.5-36.4-44.071-1.889-7.246-3.462-18.05-1.733-27.021a104.27,104.27,0,0,1,4.333-16.183c6.377-17.451,23.926-32.642,41.888-38.725a73.989,73.989,0,0,1,11.7-2.6Zm185.027,0.289-1.3,1.012h0.433a2.487,2.487,0,0,0,1.589-1.012h-0.723Zm-1.733,1.012-1.733.867V345.2a2.4,2.4,0,0,0,2.022-1.156h-0.289Zm-183.294.144-6.067.434c-5.362.914-10.737,1.5-15.31,3.323-20.177,8.036-34.56,21.794-41.6,42.915-2.177,6.53-4.051,16.266-2.745,24.709,0.964,6.224,1.385,11.133,3.034,16.328,6.064,19.114,19.893,32.826,37.554,40.459,6.542,2.826,20.371,7.051,30.91,5.346,28.355-4.589,46.256-17.545,56.476-40.025,6.385-14.046,7.185-36.44.723-51.007C319.985,363.341,300.619,344.355,267.359,344.188Zm211.171,0.289-4.911.578a84.054,84.054,0,0,0-11.266,2.89,59.674,59.674,0,0,0-36.11,36.846c-12.728,36.6,11.387,66.2,36.543,75.86,6.554,2.518,16.822,4.878,26.433,3.324,24.939-4.035,40.907-16.764,49.543-36.991a68.541,68.541,0,0,0,3.466-12.138c2.107-9.772.266-21.31-2.166-29.043-6.205-19.722-21.335-34.11-41.744-39.592C492.491,344.646,485.969,344.49,478.53,344.477Zm-30.188.723c-0.757.94-3.158,1.872-4.477,2.745l-8.234,6.5c-5.592,4.111-10.289,12.375-14.01,18.5-2.551,4.195-4.444,9.957-5.778,15.027-8.34,31.707,9.359,60.456,27.01,72.537a73.671,73.671,0,0,0,26.577,11.56c17.173,3.611,35.454-.97,46.366-7.37,3.237-1.9,10.882-5.43,12.133-8.814h-0.145c-2.179.808-3.436,2.669-5.2,3.9l-7.222,4.48c-5.1,2.927-11.313,4.923-17.477,6.647l-9.966,1.156-8.378-.145-7.8-.433a77.8,77.8,0,0,1-14.444-4.48c-22.54-9.831-36.522-26.183-41.309-53.9a57.972,57.972,0,0,1,0-19.073,68.186,68.186,0,0,1,2.888-12.138c4.048-10.536,10.037-20.825,18.055-27.454l8.233-6.791c1.379-.836,2.622-1.127,3.611-2.312Zm30.766,6.213c27.934-.443,44.4,13.132,52.721,32.367,4.945,11.437,5.509,28.157.577,40.17-7.644,18.619-22.014,29.221-44.632,33.089-9.311,1.592-18.743-1.356-24.843-3.9-20.459-8.536-40.057-33.54-30.477-64.59,4.893-15.86,16.439-27.474,31.2-33.523l11.7-3.323Zm-218.682,1.156c16.324-.094,27.9-1.146,30.765,12.571,0.946,4.523-1.126,20.416,1.734,22.108,1.356,0.731,3.925.355,5.922,0.433,4.579,0.18,17.216-.878,21.377.723a10.612,10.612,0,0,1,5.777,5.49c1.134,2.841.723,7.529,0.723,11.271,0,9.8,1.692,22.949-4.045,27.165-6.146,4.518-24.276-.984-30.332,2.746-2.163,6.93.731,19.086-2.167,25.431a16.174,16.174,0,0,1-6.644,7.08c-4.985,2.357-21.182,3.041-27.733,1.156a14.943,14.943,0,0,1-7.366-4.913c-3.071-4.087-3.323-9.179-3.322-16.617,0-3.048.5-9.908-.722-11.7-2.042-2.986-17.188-.668-22.1-1.589-7.266-1.363-11.336-6.689-12.566-14.161v-9.97c-0.407-3.465-.18-9.195.867-11.993,2.017-5.392,6.305-8.891,12.71-9.97,6.565-1.107,15.913,1.676,20.8-1.156,2.5-6.062-.5-17.054,1.589-23.7a15.586,15.586,0,0,1,9.1-9.536Zm0.433,3.034-3.9.434a12.667,12.667,0,0,0-8.378,8.236c-1.7,6.094,1.544,19.235-1.588,23.7-3.847,5.481-16.026,1.418-23.833,3.035-9.917,2.053-10.255,9.584-10.255,21.674,0,4.734-.272,9.678,1.589,12.571a13.255,13.255,0,0,0,9.388,5.78c6.861,1.146,18.782-2.35,22.388,2.023,3.831,4.645.736,15.6,2.023,22.83,1.644,9.251,8.274,10.4,19.355,10.4l9.966-.145c7.01-1.263,9.531-5.163,10.688-12.426,1-6.27-1.806-15.774,1.3-19.941,5.545-7.437,28.913,2.294,33.222-6.358,1.26-2.53.722-7.384,0.722-10.981,0-9.294,2.389-23.472-5.2-25.431l-5.778-.145c-7.085,0-18.456,1.427-22.388-2.023-3.976-3.489-.866-17.011-2.166-23.553C285.827,354.284,274.059,355.539,260.859,355.6Zm219.116,1.445-0.578.434c-0.087,3.717.986,10.1,2.455,12.426,1.674,0.158,5.381.712,6.211-.289,0.652-1.312,2.283-10.388,1.733-11.848a0.546,0.546,0,0,0-.288-0.289C487.645,356.343,482.621,357.015,479.975,357.048Zm-6.067.723-9.244,2.89c0.112,3.257,4.07,9.078,5.633,11.559a19.61,19.61,0,0,0,7.078-2.023,45.842,45.842,0,0,0-1.878-12.426h-1.589Zm19.355,0.433c-0.725,1.359-2.353,12.215-1.444,12.86,1.913,1,4.244,1.273,5.922,2.457l1.011-.434c1.279-3.746,4.7-6.832,5.344-10.981C502.064,360.182,496.715,358.36,493.263,358.2Zm-32.5,4.335c-3.041,2.072-6.323,3.746-8.811,6.358,0.4,1.58,7.656,8.628,9.389,8.814l5.633-3.9c-0.109-2.544-3.994-9.81-5.489-11.271h-0.722Zm46.365,1.445c-2.646,2.284-4.278,7.681-5.777,10.982,0.465,0.828,5.046,4.5,6.066,4.623,1.96-1.382,8.246-6.592,8.667-8.958C513.86,368.456,510.745,364.494,507.129,363.984Zm-58.065,7.658c-1.481,1.357-7.225,7.373-6.211,9.681,3.488,1.244,6.755,4.47,10.689,4.913,1.484-.856,4.246-4.286,4.622-6.069C456.476,378.239,451.694,371.952,449.064,371.642Zm32.5,1.156-8.81,1.734A32.633,32.633,0,0,0,453.4,393.75c-7.249,18.468,5.57,33.713,17.332,39.3,3.468,1.647,9.023,3.546,14.733,2.6,14.174-2.348,23.517-9.5,27.733-21.675a29.722,29.722,0,0,0,.866-13.871C510.994,383.985,500.634,372.7,481.563,372.8Zm36.833,0.867c-2.9,2.664-6.055,5.31-8.378,8.525,0.148,1.741,2.5,5.57,3.756,6.358,1.322,0.412,10.792-4.581,11.41-5.635a34.26,34.26,0,0,0-6.066-9.248H518.4ZM440.542,383.78c-1.071,1.458-4.284,9.3-3.466,11.27,3.544,0.787,8.892,2.094,12.566,1.445,0.82-1.695,2.763-5.978,1.878-7.513C447.912,387.717,444.786,384.123,440.542,383.78Zm85.509,2.6-10.689,5.635,1.734,7.369c2.958,0.531,10.363-.94,13-1.878-0.122-3.237-1.652-8.935-3.322-11.126h-0.722Zm-459.9,5.491c4.013,0.023,7.23,2.186,10.255,3.467L90.42,400.83c16.129,6.378,33.1,12.024,49.832,17.484,4.725,1.542,22.6,6.091,24.555,8.959,2.494,3.668-.912,9.628-2.166,12.716-1.1,2.7-3.428,3.317-4.767,5.49L152.818,458.2c-0.526,1.835.863,3.009,0.433,5.2-0.623,3.177-3.785,11.023-5.922,12.715-1.551,1.229-4.732.333-6.211-.144-2.255-.728-13.555-4.838-15.166-4.479-2.6.578-3.789,3.709-6.5,4.479-3.147.893-11.114-2.926-13.433-3.9L78.72,462.1c-3.629-1.464-8.247-2.06-11.122-4.335-2.348-1.857-.942-7.1-2.744-8.669-4.465-3.889-15.694-3.292-17.622-9.537-0.951-3.081,2.167-11.789,3.611-13.727,0.963-1.292,2.774-1.7,3.611-3.179l2.456-6.358,2.311-7.513L58.5,404.587c0.7-2.619,3.23-10.309,5.055-11.7A10.37,10.37,0,0,1,66.154,391.872Zm-0.722,1.589c-2.616,2.181-4.361,7.206-5.2,10.982-0.31,1.4.412,2.261,0.578,3.179,0.3,1.677-.535,3.565-1.011,4.768l-4.622,12.282c-0.72,1.189-2.4,1.394-3.178,2.456-1.011,1.382-3.7,8.625-3.178,11.127,0.915,4.412,10.537,6.948,14.877,8.38l4.911,2.312c12.54,4.92,24.859,8.541,37.41,13.149,9.365,3.439,18.815,6.72,28.455,10.115,2.2,0.774,8.949,3.863,11.266,2.89,2.874-1.284,5.042-8.238,5.778-11.56q-0.29-2.455-.578-4.913c0.889-3.714,3.265-8.418,4.766-12.282,1.085-2.789,3.081-3.292,4.623-5.346,1.353-1.8,4.9-10.455,3.322-12.571-2.372-3.172-19.367-6.873-24.411-8.814-16.05-6.179-32.726-10.834-48.532-17.051l-14.733-5.78C72.747,395.581,69.758,393.543,65.431,393.461Zm371.211,4.624-0.433.578c-1.072,2.365-.676,8.354-0.144,10.981,2.548,0.7,10.227-1.154,12.71-1.878,0.049-.1.1-0.193,0.145-0.289,0.047-2.309.477-6.256-.433-7.8Zm91.72,2.89c-3.284,1.37-7.858.448-10.833,2.023-0.127,2.4-.857,5.707-0.289,7.513,3.819,0.53,8.389,2.3,12.422,1.59,0.924-2.044,1.425-9.141.433-11.126h-1.733Zm-80.02,10.114c-3.647,1.408-8.435.372-11.7,2.023a25.666,25.666,0,0,0,3.178,10.549c3.325-.088,9.256-4.013,11.7-5.636l-2.022-6.791Zm67.887,2.746c-0.907,1.537-2.887,5.35-1.878,7.08,2.594,0.817,8.2,5.352,10.689,4.768,1.207-.561,4.281-8.629,3.466-10.4C524.493,414.76,520.682,413.873,516.229,413.835Zm-63.843,7.658c-2.054,1.209-10.179,3.843-10.544,5.924a46.935,46.935,0,0,0,6.067,8.526c2.678-.143,7.66-6.66,9.388-8.526C456.954,425.763,454.268,421.666,452.386,421.493Zm59.221,2.023-3.9,4.768c0.3,1.494,7.873,9.138,8.811,8.959,3.129-.956,4.8-5.537,6.789-7.8-0.049-.144-0.1-0.289-0.145-0.433C522.386,427.593,513.884,423.607,511.607,423.516Zm-52.143,6.5c-2.746,2.722-6.04,5.127-8.377,8.237,0.231,1.953,6.8,6.752,8.955,6.935,1.465-.906,5.253-8.916,5.344-11.27C464.421,432.544,461.519,430.148,459.464,430.018Zm45.065,1.3-5.344,3.468c0.149,3.013,3.882,8.768,5.344,11.126l0.723,0.144a33.548,33.548,0,0,0,8.666-5.924C513.5,438.44,506.322,431.569,504.529,431.319ZM468.708,435.8c-1.354,2.043-5.743,8.97-5.344,11.56,2.957,1.229,6.237,2.952,10.111,3.034l0.144-.289c0.628-2.47,2.226-10.39,1.156-12.571C472.557,437,471.058,435.883,468.708,435.8Zm26,0.578-5.633,2.023c-0.034,2.674,1.065,11.625,2.6,12.427,3.318-.912,7.146-1.416,9.822-3.035C501.483,445.435,496.673,436.409,494.707,436.376ZM483.586,438.4c-1.49.555-3.99-.077-5.2,0.578l-1.734,11.849,0.434,0.144c1.52,1.01,8.72,1.147,10.4.145l0.145-.289c0.039-4.163-1.065-8.528-2.022-12.138ZM67.165,449.092l-0.433.578,1.589,6.358c1.239,2.124,8.806,3.841,11.555,4.912,9.569,3.729,19.882,6.913,29.177,10.982,1.6,0.7,7.707,3.147,9.822,2.6,1.446-.373,2.422-1.78,3.467-2.6,0.818-.644,1.947-1.077,2.311-2.167-5.029-1.269-10.4-3.918-15.022-5.78l-27.588-9.681C77.919,452.793,71.807,449.284,67.165,449.092Zm462.208,5.2-0.144.289,0.144,0.144,0.433-.433h-0.433Zm-0.578.578v0.289C528.936,454.908,528.927,455.129,528.795,454.872Zm-0.577.578c-0.049.1-.1,0.192-0.145,0.289C528.332,455.545,528.292,455.764,528.218,455.45ZM344.056,478.713c11.214-.147,22.039-1.664,24.844,7.081a9.329,9.329,0,0,1,.578,4.768q-0.867,2.022-1.733,4.046c-4.561,6.441-20.855,4.19-31.2,4.19l-11.7-.289a11.673,11.673,0,0,1-5.344-4.479,10.391,10.391,0,0,1-1.3-5.347c0.9-9.494,7.3-9.826,17.766-9.825Zm52.721,0c11.846-.149,24.764-2.259,27.588,7.081,0.746,2.466.678,5.674-.578,7.658a13.092,13.092,0,0,1-5.344,4.768c-2.745,1.09-7.4.578-10.977,0.578-9.365,0-26.014,1.716-30.911-2.745-6.069-5.529-1.887-15.573,5.056-17.051Zm-68.465,1.59c-2.488.919-4.145,0.654-5.922,2.023-3.805,2.931-3.307,11.3.723,13.582,3.8,2.155,9.891.968,15.31,1.3H350.99c8.679,0.13,15.375.336,17.043-6.936,1.137-4.954-2.948-8.715-6.066-9.681-2.646-.82-6.825-0.29-9.966-0.289H328.312Zm55.9,0c-2.613.962-4.351,0.612-6.211,2.023-4.239,3.215-2.916,11.288,1.011,13.727,3.1,1.928,8.674,1.156,13.433,1.156h18.633c2.413-.148,5.285.554,7.222-0.434,1.143-.583,1.4-2.332,2.022-2.745,1.428-.952,2.333-0.643,2.889-2.457a8.833,8.833,0,0,0-5.2-10.837c-2.609-1.024-7.348-.434-10.689-0.433h-23.11Zm-40.155,3.034c6.648,0.571,7.642,8.844,2.456,10.4C339.791,495.762,336.333,486.332,344.056,483.337Zm54.888,0.434c2.319,0.583,5.187,4.074,6.066,6.213l-0.722.578c-0.345-2.278-3.19-3.864-4.622-5.2l-1.445.145c-1.343.984-3.891,3.161-4.188,5.057L394.177,491c1.651,0.961,4.795,2.862,7.944,1.445,0.806-.362.967-1.109,2.022-1.011v0.144l-0.577,1.59c-1.62,1.234-7.782.492-9.1-.289a6.845,6.845,0,0,0-1.444-3.179C394.371,487.388,397,485.548,398.944,483.771Zm-55.032.433a6.745,6.745,0,0,0-2.6,1.879c-1.752,2.846-.044,7.184,3.467,6.935C350.246,492.631,350.082,483.977,343.912,484.2Z"/>
</svg>
